<svg xmlns="http://www.w3.org/2000/svg" viewBox="0 0 780 320" fill="none">
  <style>
    text { font-family: 'Inter', sans-serif; }
    .node { rx: 8; ry: 8; stroke-width: 1.5; }
    .arrow { stroke: #64748b; stroke-width: 1.5; fill: none; marker-end: url(#alah); }
    .arrow-loop { stroke: #fcd34d; stroke-width: 1.5; fill: none; stroke-dasharray: 5 3; marker-end: url(#aloah); }
    .label { font-size: 15px; fill: #cbd5e1; }
    .title { font-size: 13.5px; fill: #f1f5f9; font-weight: 600; }
    .phase { font-size: 13.5px; fill: #f59e0b; font-weight: 600; text-transform: uppercase; letter-spacing: 0.05em; }
    .lane { font-size: 13.5px; font-weight: 600; text-transform: uppercase; letter-spacing: 0.05em; }
  </style>
  <defs>
    <marker id="alah" markerWidth="8" markerHeight="6" refX="7" refY="3" orient="auto">
      <path d="M0,0 L8,3 L0,6" fill="#64748b" />
    </marker>
    <marker id="aloah" markerWidth="8" markerHeight="6" refX="7" refY="3" orient="auto">
      <path d="M0,0 L8,3 L0,6" fill="#fcd34d" />
    </marker>
  </defs>

  <!-- Step 1: scan -->
  <text x="80" y="20" class="phase" text-anchor="middle">1 · SCAN</text>
  <rect x="10" y="35" width="140" height="65" class="node" fill="#0f172a" stroke="#fbbf24" />
  <text x="80" y="55" class="title" text-anchor="middle">content-audit</text>
  <text x="80" y="71" class="label" text-anchor="middle">probe live routes</text>
  <text x="80" y="86" class="label" text-anchor="middle">HTTP + HTML inspection</text>

  <!-- arrow to triage -->
  <path d="M150,67 L210,67" class="arrow" />
  <text x="180" y="60" class="label" text-anchor="middle">findings[]</text>

  <!-- Step 2: triage -->
  <text x="290" y="20" class="phase" text-anchor="middle">2 · TRIAGE</text>
  <rect x="210" y="35" width="220" height="65" class="node" fill="#0f172a" stroke="#fbbf24" />
  <text x="320" y="55" class="title" text-anchor="middle">forge_triage_route</text>
  <text x="320" y="71" class="label" text-anchor="middle">classify each finding</text>
  <text x="320" y="86" class="label" text-anchor="middle">→ lane + payload + confidence</text>

  <!-- 3 lanes branching out -->
  <path d="M430,55 L490,40" class="arrow" />
  <path d="M430,67 L490,125" class="arrow" />
  <path d="M430,80 L490,195" class="arrow" />

  <!-- Bug lane -->
  <text x="580" y="20" class="lane" style="fill:#fb7185;" text-anchor="middle">LANE 1 · BUG</text>
  <rect x="490" y="30" width="200" height="50" class="node" fill="#0f172a" stroke="#fb7185" />
  <text x="590" y="50" class="title" text-anchor="middle">forge_bug_register</text>
  <text x="590" y="66" class="label" text-anchor="middle">fingerprint-deduped registry</text>

  <!-- Spec lane -->
  <text x="580" y="107" class="lane" style="fill:#fbbf24;" text-anchor="middle">LANE 2 · SPEC</text>
  <rect x="490" y="115" width="200" height="50" class="node" fill="#0f172a" stroke="#fbbf24" />
  <text x="590" y="135" class="title" text-anchor="middle">forge_crucible_submit</text>
  <text x="590" y="151" class="label" text-anchor="middle">re-smelt as a new feature</text>

  <!-- Classifier lane -->
  <text x="580" y="177" class="lane" style="fill:#c4b5fd;" text-anchor="middle">LANE 3 · CLASSIFIER</text>
  <rect x="490" y="185" width="200" height="50" class="node" fill="#0f172a" stroke="#c4b5fd" />
  <text x="590" y="205" class="title" text-anchor="middle">.forge/audits/&lt;ts&gt;.json</text>
  <text x="590" y="221" class="label" text-anchor="middle">human review</text>

  <!-- Step 3: fix -->
  <text x="730" y="105" class="phase" text-anchor="middle">3 · FIX</text>
  <rect x="690" y="120" width="80" height="50" class="node" fill="#0f172a" stroke="#34d399" />
  <text x="730" y="140" class="title" text-anchor="middle">spawn</text>
  <text x="730" y="156" class="label" text-anchor="middle">Worker</text>

  <path d="M690,55 L700,120" class="arrow" />
  <path d="M690,140 L690,140" class="arrow" />
  <path d="M690,210 L700,170" class="arrow" />

  <!-- Loop back -->
  <path d="M710,165 Q710,260 80,260 Q60,260 60,100" class="arrow-loop" />
  <text x="380" y="280" class="label" style="fill:#fcd34d;" text-anchor="middle">→ next round (until convergence or maxRounds=5)</text>

  <!-- Activation note -->
  <rect x="10" y="115" width="200" height="80" class="node" fill="#020617" stroke="#475569" stroke-dasharray="2 3" />
  <text x="110" y="135" class="title" style="fill:#94a3b8;" text-anchor="middle">Activation</text>
  <text x="110" y="151" class="label" text-anchor="middle">.forge.json#audit.mode</text>
  <text x="110" y="167" class="label" style="font-family:'JetBrains Mono',monospace;font-size:12px;" text-anchor="middle">"off" (default)</text>
  <text x="110" y="183" class="label" style="font-family:'JetBrains Mono',monospace;font-size:12px;" text-anchor="middle">| "auto" | "always"</text>

  <!-- Hard guards -->
  <rect x="10" y="210" width="200" height="55" class="node" fill="#020617" stroke="#fb7185" stroke-dasharray="2 3" />
  <text x="110" y="230" class="title" style="fill:#fb7185;" text-anchor="middle">Production hard-blocked</text>
  <text x="110" y="246" class="label" text-anchor="middle">forbidProduction: true</text>
  <text x="110" y="260" class="label" text-anchor="middle">(immutable)</text>
</svg>
