<svg xmlns="http://www.w3.org/2000/svg" viewBox="0 0 800 320" fill="none">
  <style>
    text { font-family: 'Inter', sans-serif; }
    .node { rx: 8; ry: 8; stroke-width: 1.5; }
    .arrow { stroke: #475569; stroke-width: 1.5; fill: none; marker-end: url(#arrowhead); }
    .label { font-size: 11px; fill: #94a3b8; }
    .title { font-size: 10px; fill: #e2e8f0; font-weight: 600; }
    .tag { font-size: 9px; fill: #f59e0b; font-weight: 600; }
  </style>
  <defs>
    <marker id="arrowhead" markerWidth="8" markerHeight="6" refX="7" refY="3" orient="auto">
      <path d="M0,0 L8,3 L0,6" fill="#475569" />
    </marker>
  </defs>
  <!-- Slice 1 -->
  <rect x="20" y="120" width="140" height="60" class="node" fill="#0f172a" stroke="#d97706" />
  <text x="90" y="145" class="title" text-anchor="middle">Slice 1</text>
  <text x="90" y="162" class="label" text-anchor="middle">DB Migration</text>
  <!-- Arrow 1→2 -->
  <path d="M160,140 L200,80" class="arrow" />
  <!-- Arrow 1→3 -->
  <path d="M160,160 L200,200" class="arrow" />
  <!-- Slice 2 [P] -->
  <rect x="210" y="50" width="140" height="60" class="node" fill="#0f172a" stroke="#60a5fa" />
  <text x="280" y="75" class="title" text-anchor="middle">Slice 2</text>
  <text x="280" y="92" class="label" text-anchor="middle">Repository Layer</text>
  <text x="355" y="65" class="tag">[P]</text>
  <!-- Slice 3 [P] -->
  <rect x="210" y="180" width="140" height="60" class="node" fill="#0f172a" stroke="#60a5fa" />
  <text x="280" y="205" class="title" text-anchor="middle">Slice 3</text>
  <text x="280" y="222" class="label" text-anchor="middle">Service Layer</text>
  <text x="355" y="195" class="tag">[P]</text>
  <!-- Arrow 2→4 -->
  <path d="M350,80 L410,130" class="arrow" />
  <!-- Arrow 3→4 -->
  <path d="M350,210 L410,170" class="arrow" />
  <!-- Slice 4 -->
  <rect x="420" y="120" width="140" height="60" class="node" fill="#0f172a" stroke="#34d399" />
  <text x="490" y="145" class="title" text-anchor="middle">Slice 4</text>
  <text x="490" y="162" class="label" text-anchor="middle">API Controller</text>
  <!-- Arrow 4→5 -->
  <path d="M560,150 L610,150" class="arrow" />
  <!-- Slice 5 -->
  <rect x="620" y="120" width="140" height="60" class="node" fill="#0f172a" stroke="#34d399" />
  <text x="690" y="145" class="title" text-anchor="middle">Slice 5</text>
  <text x="690" y="162" class="label" text-anchor="middle">Error Handling</text>
  <!-- Legend -->
  <rect x="20" y="270" width="12" height="12" fill="#d97706" rx="2" />
  <text x="38" y="281" class="label">Foundation</text>
  <rect x="120" y="270" width="12" height="12" fill="#60a5fa" rx="2" />
  <text x="138" y="281" class="label">Parallel [P]</text>
  <rect x="230" y="270" width="12" height="12" fill="#34d399" rx="2" />
  <text x="248" y="281" class="label">Sequential</text>
  <!-- Parallel indicator -->
  <rect x="195" y="40" width="170" height="215" rx="8" stroke="#60a5fa" stroke-width="1" stroke-dasharray="4 3" fill="none" opacity="0.3" />
  <text x="280" y="33" class="tag" text-anchor="middle">PARALLEL GROUP</text>
</svg>
