<svg id="my-svg" width="100%" xmlns="http://www.w3.org/2000/svg" xmlns:xlink="http://www.w3.org/1999/xlink" class="statediagram" style="max-width: 554.996px; background-color: transparent;" viewBox="0 0 554.99609375 1843" role="graphics-document document" aria-roledescription="stateDiagram"><style>#my-svg{font-family:Inter,ui-sans-serif;font-size:14px;fill:#e2e8f0;}@keyframes edge-animation-frame{from{stroke-dashoffset:0;}}@keyframes dash{to{stroke-dashoffset:0;}}#my-svg .edge-animation-slow{stroke-dasharray:9,5!important;stroke-dashoffset:900;animation:dash 50s linear infinite;stroke-linecap:round;}#my-svg .edge-animation-fast{stroke-dasharray:9,5!important;stroke-dashoffset:900;animation:dash 20s linear infinite;stroke-linecap:round;}#my-svg .error-icon{fill:#064e3b;}#my-svg .error-text{fill:#d1fae5;stroke:#d1fae5;}#my-svg .edge-thickness-normal{stroke-width:1px;}#my-svg .edge-thickness-thick{stroke-width:3.5px;}#my-svg .edge-pattern-solid{stroke-dasharray:0;}#my-svg .edge-thickness-invisible{stroke-width:0;fill:none;}#my-svg .edge-pattern-dashed{stroke-dasharray:3;}#my-svg .edge-pattern-dotted{stroke-dasharray:2;}#my-svg .marker{fill:#94a3b8;stroke:#94a3b8;}#my-svg .marker.cross{stroke:#94a3b8;}#my-svg svg{font-family:Inter,ui-sans-serif;font-size:14px;}#my-svg p{margin:0;}#my-svg defs [id$="-barbEnd"]{fill:#94a3b8;stroke:#94a3b8;}#my-svg g.stateGroup text{fill:#f59e0b;stroke:none;font-size:10px;}#my-svg g.stateGroup text{fill:#e2e8f0;stroke:none;font-size:10px;}#my-svg g.stateGroup .state-title{font-weight:bolder;fill:#f1f5f9;}#my-svg g.stateGroup rect{fill:#1e293b;stroke:#f59e0b;}#my-svg g.stateGroup line{stroke:#94a3b8;stroke-width:1;}#my-svg .transition{stroke:#94a3b8;stroke-width:1;fill:none;}#my-svg .stateGroup .composit{fill:#f4f4f4;border-bottom:1px;}#my-svg .stateGroup .alt-composit{fill:#e0e0e0;border-bottom:1px;}#my-svg .state-note{stroke:#fbbf24;fill:#451a03;}#my-svg .state-note text{fill:#fef3c7;stroke:none;font-size:10px;}#my-svg .stateLabel .box{stroke:none;stroke-width:0;fill:#1e293b;opacity:0.5;}#my-svg .edgeLabel .label rect{fill:#1e293b;opacity:0.5;}#my-svg .edgeLabel{background-color:#0f172a;text-align:center;}#my-svg .edgeLabel p{background-color:#0f172a;}#my-svg .edgeLabel rect{opacity:0.5;background-color:#0f172a;fill:#0f172a;}#my-svg .edgeLabel .label text{fill:#e2e8f0;}#my-svg .label div .edgeLabel{color:#e2e8f0;}#my-svg .stateLabel text{fill:#f1f5f9;font-size:10px;font-weight:bold;}#my-svg .node circle.state-start{fill:#94a3b8;stroke:#94a3b8;}#my-svg .node .fork-join{fill:#94a3b8;stroke:#94a3b8;}#my-svg .node circle.state-end{fill:#f59e0b;stroke:#f4f4f4;stroke-width:1.5;}#my-svg .end-state-inner{fill:#f4f4f4;stroke-width:1.5;}#my-svg .node rect{fill:#1e293b;stroke:#f59e0b;stroke-width:1px;}#my-svg .node polygon{fill:#1e293b;stroke:#f59e0b;stroke-width:1px;}#my-svg [id$="-barbEnd"]{fill:#94a3b8;}#my-svg .statediagram-cluster rect{fill:#1e293b;stroke:#f59e0b;stroke-width:1px;}#my-svg .cluster-label,#my-svg .nodeLabel{color:#f1f5f9;}#my-svg .statediagram-cluster rect.outer{rx:5px;ry:5px;}#my-svg .statediagram-state .divider{stroke:#f59e0b;}#my-svg .statediagram-state .title-state{rx:5px;ry:5px;}#my-svg .statediagram-cluster.statediagram-cluster .inner{fill:#f4f4f4;}#my-svg .statediagram-cluster.statediagram-cluster-alt .inner{fill:#064e3b;}#my-svg .statediagram-cluster .inner{rx:0;ry:0;}#my-svg .statediagram-state rect.basic{rx:5px;ry:5px;}#my-svg .statediagram-state rect.divider{stroke-dasharray:10,10;fill:#064e3b;}#my-svg .note-edge{stroke-dasharray:5;}#my-svg .statediagram-note rect{fill:#451a03;stroke:#fbbf24;stroke-width:1px;rx:0;ry:0;}#my-svg .statediagram-note rect{fill:#451a03;stroke:#fbbf24;stroke-width:1px;rx:0;ry:0;}#my-svg .statediagram-note text{fill:#fef3c7;}#my-svg .statediagram-note .nodeLabel{color:#fef3c7;}#my-svg .statediagram .edgeLabel{color:red;}#my-svg [id$="-dependencyStart"],#my-svg [id$="-dependencyEnd"]{fill:#94a3b8;stroke:#94a3b8;stroke-width:1;}#my-svg .statediagramTitleText{text-anchor:middle;font-size:18px;fill:#e2e8f0;}#my-svg [data-look="neo"].statediagram-cluster rect{fill:#1e293b;stroke:url(#my-svg-gradient);stroke-width:1;}#my-svg [data-look="neo"].statediagram-cluster rect.outer{rx:5px;ry:5px;filter:drop-shadow( 1px 2px 2px rgba(185,185,185,1));}#my-svg .node .neo-node{stroke:#f59e0b;}#my-svg [data-look="neo"].node rect,#my-svg [data-look="neo"].cluster rect,#my-svg [data-look="neo"].node polygon{stroke:url(#my-svg-gradient);filter:drop-shadow( 1px 2px 2px rgba(185,185,185,1));}#my-svg [data-look="neo"].node path{stroke:url(#my-svg-gradient);stroke-width:1px;}#my-svg [data-look="neo"].node .outer-path{filter:drop-shadow( 1px 2px 2px rgba(185,185,185,1));}#my-svg [data-look="neo"].node .neo-line path{stroke:#f59e0b;filter:none;}#my-svg [data-look="neo"].node circle{stroke:url(#my-svg-gradient);filter:drop-shadow( 1px 2px 2px rgba(185,185,185,1));}#my-svg [data-look="neo"].node circle .state-start{fill:#000000;}#my-svg [data-look="neo"].icon-shape .icon{fill:url(#my-svg-gradient);filter:drop-shadow( 1px 2px 2px rgba(185,185,185,1));}#my-svg [data-look="neo"].icon-shape .icon-neo path{stroke:url(#my-svg-gradient);filter:drop-shadow( 1px 2px 2px rgba(185,185,185,1));}#my-svg :root{--mermaid-font-family:"trebuchet ms",verdana,arial,sans-serif;}</style><g><defs><marker id="my-svg_stateDiagram-barbEnd" refX="19" refY="7" markerWidth="20" markerHeight="14" markerUnits="userSpaceOnUse" orient="auto"><path d="M 19,7 L9,13 L14,7 L9,1 Z"/></marker></defs><g class="root"><g class="clusters"/><g class="edgePaths"><path d="M350.691,22L350.691,27.917C350.691,33.833,350.691,45.667,350.691,57.5C350.691,69.333,350.691,81.167,350.691,87.083L350.691,93" id="my-svg-edge0" class="edge-thickness-normal edge-pattern-solid transition" style="fill:none;;;fill:none" data-edge="true" data-et="edge" data-id="edge0" data-points="W3sieCI6MzUwLjY5MTQwNjI1LCJ5IjoyMn0seyJ4IjozNTAuNjkxNDA2MjUsInkiOjU3LjV9LHsieCI6MzUwLjY5MTQwNjI1LCJ5Ijo5M31d" data-look="classic" marker-end="url(#my-svg_stateDiagram-barbEnd)"/><path d="M350.691,130L350.691,135.917C350.691,141.833,350.691,153.667,350.691,165.5C350.691,177.333,350.691,189.167,350.691,195.083L350.691,201" id="my-svg-edge1" class="edge-thickness-normal edge-pattern-solid transition" style="fill:none;;;fill:none" data-edge="true" data-et="edge" data-id="edge1" data-points="W3sieCI6MzUwLjY5MTQwNjI1LCJ5IjoxMzB9LHsieCI6MzUwLjY5MTQwNjI1LCJ5IjoxNjUuNX0seyJ4IjozNTAuNjkxNDA2MjUsInkiOjIwMX1d" data-look="classic" marker-end="url(#my-svg_stateDiagram-barbEnd)"/><path d="M350.691,238L350.691,243.917C350.691,249.833,350.691,261.667,350.691,273.5C350.691,285.333,350.691,297.167,350.691,303.083L350.691,309" id="my-svg-edge2" class="edge-thickness-normal edge-pattern-solid transition" style="fill:none;;;fill:none" data-edge="true" data-et="edge" data-id="edge2" data-points="W3sieCI6MzUwLjY5MTQwNjI1LCJ5IjoyMzh9LHsieCI6MzUwLjY5MTQwNjI1LCJ5IjoyNzMuNX0seyJ4IjozNTAuNjkxNDA2MjUsInkiOjMwOX1d" data-look="classic" marker-end="url(#my-svg_stateDiagram-barbEnd)"/><path d="M325.631,346L319.987,350.167C314.343,354.333,303.054,362.667,297.41,371C291.766,379.333,291.766,387.667,291.766,391.833L291.766,396" id="my-svg-edge3" class="edge-thickness-normal edge-pattern-solid transition" style="fill:none;;;fill:none" data-edge="true" data-et="edge" data-id="edge3" data-points="W3sieCI6MzI1LjYzMTAxNjUyMjk4ODUsInkiOjM0Nn0seyJ4IjoyOTEuNzY1NjI1LCJ5IjozNzF9LHsieCI6MjkxLjc2NTYyNSwieSI6Mzk2fV0=" data-look="classic" marker-end="url(#my-svg_stateDiagram-barbEnd)"/><path d="M265.217,433L256.727,438.917C248.236,444.833,231.255,456.667,222.764,468.5C214.273,480.333,214.273,492.167,214.273,498.083L214.273,504" id="my-svg-edge4" class="edge-thickness-normal edge-pattern-solid transition" style="fill:none;;;fill:none" data-edge="true" data-et="edge" data-id="edge4" data-points="W3sieCI6MjY1LjIxNzM3NTU3ODcwMzcsInkiOjQzM30seyJ4IjoyMTQuMjczNDM3NSwieSI6NDY4LjV9LHsieCI6MjE0LjI3MzQzNzUsInkiOjUwNH1d" data-look="classic" marker-end="url(#my-svg_stateDiagram-barbEnd)"/><path d="M214.273,541L214.273,548.667C214.273,556.333,214.273,571.667,214.273,587C214.273,602.333,214.273,617.667,214.273,625.333L214.273,633" id="my-svg-edge5" class="edge-thickness-normal edge-pattern-solid transition" style="fill:none;;;fill:none" data-edge="true" data-et="edge" data-id="edge5" data-points="W3sieCI6MjE0LjI3MzQzNzUsInkiOjU0MX0seyJ4IjoyMTQuMjczNDM3NSwieSI6NTg3fSx7IngiOjIxNC4yNzM0Mzc1LCJ5Ijo2MzN9XQ==" data-look="classic" marker-end="url(#my-svg_stateDiagram-barbEnd)"/><path d="M214.273,670L214.273,674.167C214.273,678.333,214.273,686.667,214.273,695C214.273,703.333,214.273,711.667,214.273,715.833L214.273,720" id="my-svg-edge6" class="edge-thickness-normal edge-pattern-solid transition" style="fill:none;;;fill:none" data-edge="true" data-et="edge" data-id="edge6" data-points="W3sieCI6MjE0LjI3MzQzNzUsInkiOjY3MH0seyJ4IjoyMTQuMjczNDM3NSwieSI6Njk1fSx7IngiOjIxNC4yNzM0Mzc1LCJ5Ijo3MjB9XQ==" data-look="classic" marker-end="url(#my-svg_stateDiagram-barbEnd)"/><path d="M201.646,757L197.607,762.917C193.568,768.833,185.491,780.667,181.453,792.5C177.414,804.333,177.414,816.167,177.414,822.083L177.414,828" id="my-svg-edge7" class="edge-thickness-normal edge-pattern-solid transition" style="fill:none;;;fill:none" data-edge="true" data-et="edge" data-id="edge7" data-points="W3sieCI6MjAxLjY0NTY4ODY1NzQwNzQyLCJ5Ijo3NTd9LHsieCI6MTc3LjQxNDA2MjUsInkiOjc5Mi41fSx7IngiOjE3Ny40MTQwNjI1LCJ5Ijo4Mjh9XQ==" data-look="classic" marker-end="url(#my-svg_stateDiagram-barbEnd)"/><path d="M239.91,757L248.11,762.917C256.309,768.833,272.707,780.667,291.034,792.5C309.36,804.333,329.615,816.167,339.742,822.083L349.869,828" id="my-svg-edge8" class="edge-thickness-normal edge-pattern-solid transition" style="fill:none;;;fill:none" data-edge="true" data-et="edge" data-id="edge8" data-points="W3sieCI6MjM5LjkxMDMzNzA5NDkwNzQyLCJ5Ijo3NTd9LHsieCI6Mjg5LjEwNTQ2ODc1LCJ5Ijo3OTIuNX0seyJ4IjozNDkuODY5NDI5OTc2ODUxODUsInkiOjgyOH1d" data-look="classic" marker-end="url(#my-svg_stateDiagram-barbEnd)"/><path d="M387.563,828L389.49,822.083C391.418,816.167,395.273,804.333,397.201,789.417C399.129,774.5,399.129,756.5,399.129,740.25C399.129,724,399.129,709.5,399.129,695C399.129,680.5,399.129,666,399.129,648C399.129,630,399.129,608.5,399.129,587C399.129,565.5,399.129,544,399.129,524.25C399.129,504.5,399.129,486.5,387.365,471.583C375.602,456.667,352.075,444.833,340.311,438.917L328.547,433" id="my-svg-edge9" class="edge-thickness-normal edge-pattern-solid transition" style="fill:none;;;fill:none" data-edge="true" data-et="edge" data-id="edge9" data-points="W3sieCI6Mzg3LjU2MjY0NDY3NTkyNTksInkiOjgyOH0seyJ4IjozOTkuMTI4OTA2MjUsInkiOjc5Mi41fSx7IngiOjM5OS4xMjg5MDYyNSwieSI6NzM4LjV9LHsieCI6Mzk5LjEyODkwNjI1LCJ5Ijo2OTV9LHsieCI6Mzk5LjEyODkwNjI1LCJ5Ijo2NTEuNX0seyJ4IjozOTkuMTI4OTA2MjUsInkiOjU4N30seyJ4IjozOTkuMTI4OTA2MjUsInkiOjUyMi41fSx7IngiOjM5OS4xMjg5MDYyNSwieSI6NDY4LjV9LHsieCI6MzI4LjU0NzQ4OTg3MjY4NTE2LCJ5Ijo0MzN9XQ==" data-look="classic" marker-end="url(#my-svg_stateDiagram-barbEnd)"/><path d="M177.414,865L177.414,870.917C177.414,876.833,177.414,888.667,177.414,900.5C177.414,912.333,177.414,924.167,177.414,930.083L177.414,936" id="my-svg-edge10" class="edge-thickness-normal edge-pattern-solid transition" style="fill:none;;;fill:none" data-edge="true" data-et="edge" data-id="edge10" data-points="W3sieCI6MTc3LjQxNDA2MjUsInkiOjg2NX0seyJ4IjoxNzcuNDE0MDYyNSwieSI6OTAwLjV9LHsieCI6MTc3LjQxNDA2MjUsInkiOjkzNn1d" data-look="classic" marker-end="url(#my-svg_stateDiagram-barbEnd)"/><path d="M177.414,973L177.414,978.917C177.414,984.833,177.414,996.667,177.414,1008.5C177.414,1020.333,177.414,1032.167,177.414,1038.083L177.414,1044" id="my-svg-edge11" class="edge-thickness-normal edge-pattern-solid transition" style="fill:none;;;fill:none" data-edge="true" data-et="edge" data-id="edge11" data-points="W3sieCI6MTc3LjQxNDA2MjUsInkiOjk3M30seyJ4IjoxNzcuNDE0MDYyNSwieSI6MTAwOC41fSx7IngiOjE3Ny40MTQwNjI1LCJ5IjoxMDQ0fV0=" data-look="classic" marker-end="url(#my-svg_stateDiagram-barbEnd)"/><path d="M177.414,1081L177.414,1086.917C177.414,1092.833,177.414,1104.667,177.414,1116.5C177.414,1128.333,177.414,1140.167,177.414,1146.083L177.414,1152" id="my-svg-edge12" class="edge-thickness-normal edge-pattern-solid transition" style="fill:none;;;fill:none" data-edge="true" data-et="edge" data-id="edge12" data-points="W3sieCI6MTc3LjQxNDA2MjUsInkiOjEwODF9LHsieCI6MTc3LjQxNDA2MjUsInkiOjExMTYuNX0seyJ4IjoxNzcuNDE0MDYyNSwieSI6MTE1Mn1d" data-look="classic" marker-end="url(#my-svg_stateDiagram-barbEnd)"/><path d="M157.505,1189L149.254,1196.667C141.003,1204.333,124.502,1219.667,116.251,1235C108,1250.333,108,1265.667,108,1273.333L108,1281" id="my-svg-edge13" class="edge-thickness-normal edge-pattern-solid transition" style="fill:none;;;fill:none" data-edge="true" data-et="edge" data-id="edge13" data-points="W3sieCI6MTU3LjUwNDYwMjcxMzE3ODMsInkiOjExODl9LHsieCI6MTA4LCJ5IjoxMjM1fSx7IngiOjEwOCwieSI6MTI4MX1d" data-look="classic" marker-end="url(#my-svg_stateDiagram-barbEnd)"/><path d="M197.324,1189L205.574,1196.667C213.825,1204.333,230.327,1219.667,238.577,1238.083C246.828,1256.5,246.828,1278,246.828,1297.75C246.828,1317.5,246.828,1335.5,262.805,1351.062C278.783,1366.625,310.737,1379.749,326.714,1386.312L342.691,1392.874" id="my-svg-edge14" class="edge-thickness-normal edge-pattern-solid transition" style="fill:none;;;fill:none" data-edge="true" data-et="edge" data-id="edge14" data-points="W3sieCI6MTk3LjMyMzUyMjI4NjgyMTcsInkiOjExODl9LHsieCI6MjQ2LjgyODEyNSwieSI6MTIzNX0seyJ4IjoyNDYuODI4MTI1LCJ5IjoxMjk5LjV9LHsieCI6MjQ2LjgyODEyNSwieSI6MTM1My41fSx7IngiOjM0Mi42OTE0MDYyNSwieSI6MTM5Mi44NzQwOTc1MTMxNDczfV0=" data-look="classic" marker-end="url(#my-svg_stateDiagram-barbEnd)"/><path d="M162.266,1311.367L194.376,1318.389C226.486,1325.412,290.706,1339.456,325.377,1352.395C360.048,1365.333,365.17,1377.167,367.732,1383.083L370.293,1389" id="my-svg-edge15" class="edge-thickness-normal edge-pattern-solid transition" style="fill:none;;;fill:none" data-edge="true" data-et="edge" data-id="edge15" data-points="W3sieCI6MTYyLjI2NTYyNSwieSI6MTMxMS4zNjczMDU3NzU3MTA3fSx7IngiOjM1NC45MjU3ODEyNSwieSI6MTM1My41fSx7IngiOjM3MC4yOTI2NzkzOTgxNDgxNSwieSI6MTM4OX1d" data-look="classic" marker-end="url(#my-svg_stateDiagram-barbEnd)"/><path d="M108,1318L108,1323.917C108,1329.833,108,1341.667,108,1356.583C108,1371.5,108,1389.5,108,1407.5C108,1425.5,108,1443.5,108,1461.5C108,1479.5,108,1497.5,108,1517.25C108,1537,108,1558.5,108,1580C108,1601.5,108,1623,108,1642.75C108,1662.5,108,1680.5,108,1695.417C108,1710.333,108,1722.167,108,1728.083L108,1734" id="my-svg-edge16" class="edge-thickness-normal edge-pattern-solid transition" style="fill:none;;;fill:none" data-edge="true" data-et="edge" data-id="edge16" data-points="W3sieCI6MTA4LCJ5IjoxMzE4fSx7IngiOjEwOCwieSI6MTM1My41fSx7IngiOjEwOCwieSI6MTQwNy41fSx7IngiOjEwOCwieSI6MTQ2MS41fSx7IngiOjEwOCwieSI6MTUxNS41fSx7IngiOjEwOCwieSI6MTU4MH0seyJ4IjoxMDgsInkiOjE2NDQuNX0seyJ4IjoxMDgsInkiOjE2OTguNX0seyJ4IjoxMDgsInkiOjE3MzR9XQ==" data-look="classic" marker-end="url(#my-svg_stateDiagram-barbEnd)"/><path d="M108,1771L108,1775.167C108,1779.333,108,1787.667,138.546,1796.973C169.091,1806.279,230.183,1816.558,260.728,1821.698L291.274,1826.837" id="my-svg-edge17" class="edge-thickness-normal edge-pattern-solid transition" style="fill:none;;;fill:none" data-edge="true" data-et="edge" data-id="edge17" data-points="W3sieCI6MTA4LCJ5IjoxNzcxfSx7IngiOjEwOCwieSI6MTc5Nn0seyJ4IjoyOTEuMjc0MDcxOTIzMjQyNiwieSI6MTgyNi44Mzc0MTQ0NDcyODk4fV0=" data-look="classic" marker-end="url(#my-svg_stateDiagram-barbEnd)"/><path d="M413.91,1393.465L430.81,1386.804C447.71,1380.143,481.509,1366.822,498.409,1351.161C515.309,1335.5,515.309,1317.5,515.309,1297.75C515.309,1278,515.309,1256.5,515.309,1235C515.309,1213.5,515.309,1192,515.309,1172.25C515.309,1152.5,515.309,1134.5,515.309,1116.5C515.309,1098.5,515.309,1080.5,515.309,1062.5C515.309,1044.5,515.309,1026.5,515.309,1008.5C515.309,990.5,515.309,972.5,515.309,954.5C515.309,936.5,515.309,918.5,515.309,900.5C515.309,882.5,515.309,864.5,515.309,846.5C515.309,828.5,515.309,810.5,515.309,792.5C515.309,774.5,515.309,756.5,515.309,740.25C515.309,724,515.309,709.5,515.309,695C515.309,680.5,515.309,666,515.309,648C515.309,630,515.309,608.5,515.309,587C515.309,565.5,515.309,544,515.309,524.25C515.309,504.5,515.309,486.5,515.309,468.5C515.309,450.5,515.309,432.5,515.309,416.25C515.309,400,515.309,385.5,494.52,372.757C473.73,360.013,432.152,349.026,411.363,343.533L390.574,338.039" id="my-svg-edge18" class="edge-thickness-normal edge-pattern-solid transition" style="fill:none;;;fill:none" data-edge="true" data-et="edge" data-id="edge18" data-points="W3sieCI6NDEzLjkxMDE1NjI1LCJ5IjoxMzkzLjQ2NDk4ODMxMDQyOTR9LHsieCI6NTE1LjMwODU5Mzc1LCJ5IjoxMzUzLjV9LHsieCI6NTE1LjMwODU5Mzc1LCJ5IjoxMjk5LjV9LHsieCI6NTE1LjMwODU5Mzc1LCJ5IjoxMjM1fSx7IngiOjUxNS4zMDg1OTM3NSwieSI6MTE3MC41fSx7IngiOjUxNS4zMDg1OTM3NSwieSI6MTExNi41fSx7IngiOjUxNS4zMDg1OTM3NSwieSI6MTA2Mi41fSx7IngiOjUxNS4zMDg1OTM3NSwieSI6MTAwOC41fSx7IngiOjUxNS4zMDg1OTM3NSwieSI6OTU0LjV9LHsieCI6NTE1LjMwODU5Mzc1LCJ5Ijo5MDAuNX0seyJ4Ijo1MTUuMzA4NTkzNzUsInkiOjg0Ni41fSx7IngiOjUxNS4zMDg1OTM3NSwieSI6NzkyLjV9LHsieCI6NTE1LjMwODU5Mzc1LCJ5Ijo3MzguNX0seyJ4Ijo1MTUuMzA4NTkzNzUsInkiOjY5NX0seyJ4Ijo1MTUuMzA4NTkzNzUsInkiOjY1MS41fSx7IngiOjUxNS4zMDg1OTM3NSwieSI6NTg3fSx7IngiOjUxNS4zMDg1OTM3NSwieSI6NTIyLjV9LHsieCI6NTE1LjMwODU5Mzc1LCJ5Ijo0NjguNX0seyJ4Ijo1MTUuMzA4NTkzNzUsInkiOjQxNC41fSx7IngiOjUxNS4zMDg1OTM3NSwieSI6MzcxfSx7IngiOjM5MC41NzQyMTg3NSwieSI6MzM4LjAzOTAxMDk2MjkzNDg3fV0=" data-look="classic" marker-end="url(#my-svg_stateDiagram-barbEnd)"/><path d="M378.301,1426L378.301,1431.917C378.301,1437.833,378.301,1449.667,378.301,1461.5C378.301,1473.333,378.301,1485.167,378.301,1491.083L378.301,1497" id="my-svg-edge19" class="edge-thickness-normal edge-pattern-solid transition" style="fill:none;;;fill:none" data-edge="true" data-et="edge" data-id="edge19" data-points="W3sieCI6Mzc4LjMwMDc4MTI1LCJ5IjoxNDI2fSx7IngiOjM3OC4zMDA3ODEyNSwieSI6MTQ2MS41fSx7IngiOjM3OC4zMDA3ODEyNSwieSI6MTQ5N31d" data-look="classic" marker-end="url(#my-svg_stateDiagram-barbEnd)"/><path d="M378.301,1534L378.301,1541.667C378.301,1549.333,378.301,1564.667,378.301,1580C378.301,1595.333,378.301,1610.667,378.301,1618.333L378.301,1626" id="my-svg-edge20" class="edge-thickness-normal edge-pattern-solid transition" style="fill:none;;;fill:none" data-edge="true" data-et="edge" data-id="edge20" data-points="W3sieCI6Mzc4LjMwMDc4MTI1LCJ5IjoxNTM0fSx7IngiOjM3OC4zMDA3ODEyNSwieSI6MTU4MH0seyJ4IjozNzguMzAwNzgxMjUsInkiOjE2MjZ9XQ==" data-look="classic" marker-end="url(#my-svg_stateDiagram-barbEnd)"/><path d="M342.221,1663L330.683,1668.917C319.144,1674.833,296.066,1686.667,284.527,1698.5C272.988,1710.333,272.988,1722.167,272.988,1728.083L272.988,1734" id="my-svg-edge21" class="edge-thickness-normal edge-pattern-solid transition" style="fill:none;;;fill:none" data-edge="true" data-et="edge" data-id="edge21" data-points="W3sieCI6MzQyLjIyMTQ5ODg0MjU5MjYsInkiOjE2NjN9LHsieCI6MjcyLjk4ODI4MTI1LCJ5IjoxNjk4LjV9LHsieCI6MjcyLjk4ODI4MTI1LCJ5IjoxNzM0fV0=" data-look="classic" marker-end="url(#my-svg_stateDiagram-barbEnd)"/><path d="M272.988,1771L272.988,1775.167C272.988,1779.333,272.988,1787.667,276.465,1796.249C279.942,1804.832,286.896,1813.663,290.372,1818.079L293.849,1822.495" id="my-svg-edge22" class="edge-thickness-normal edge-pattern-solid transition" style="fill:none;;;fill:none" data-edge="true" data-et="edge" data-id="edge22" data-points="W3sieCI6MjcyLjk4ODI4MTI1LCJ5IjoxNzcxfSx7IngiOjI3Mi45ODgyODEyNSwieSI6MTc5Nn0seyJ4IjoyOTMuODQ5MTU5MTIwNjYyOSwieSI6MTgyMi40OTQ5MzIwMTgwNTc0fV0=" data-look="classic" marker-end="url(#my-svg_stateDiagram-barbEnd)"/><path d="M417.18,1663L429.614,1668.917C442.048,1674.833,466.917,1686.667,479.351,1701.583C491.785,1716.5,491.785,1734.5,491.785,1750.75C491.785,1767,491.785,1781.5,460.67,1793.893C429.556,1806.286,367.326,1816.572,336.211,1821.714L305.096,1826.857" id="my-svg-edge23" class="edge-thickness-normal edge-pattern-solid transition" style="fill:none;;;fill:none" data-edge="true" data-et="edge" data-id="edge23" data-points="W3sieCI6NDE3LjE3OTY4NzUsInkiOjE2NjN9LHsieCI6NDkxLjc4NTE1NjI1LCJ5IjoxNjk4LjV9LHsieCI6NDkxLjc4NTE1NjI1LCJ5IjoxNzUyLjV9LHsieCI6NDkxLjc4NTE1NjI1LCJ5IjoxNzk2fSx7IngiOjMwNS4wOTY0NDY3NzA4NTE5LCJ5IjoxODI2Ljg1NzM4ODg4NzcyMDJ9XQ==" data-look="classic" marker-end="url(#my-svg_stateDiagram-barbEnd)"/></g><g class="edgeLabels"><g class="edgeLabel" transform="translate(350.69140625, 57.5)"><g class="label" data-id="edge0" transform="translate(-38.4921875, -10.5)"><foreignObject width="76.984375" height="21"><div xmlns="http://www.w3.org/1999/xhtml" class="labelBkg" style="display: table-cell; white-space: nowrap; line-height: 1.5; max-width: 200px; text-align: center;"><span class="edgeLabel"><p>runPlan(plan)</p></span></div></foreignObject></g></g><g class="edgeLabel" transform="translate(350.69140625, 165.5)"><g class="label" data-id="edge1" transform="translate(-26.4375, -10.5)"><foreignObject width="52.875" height="21"><div xmlns="http://www.w3.org/1999/xhtml" class="labelBkg" style="display: table-cell; white-space: nowrap; line-height: 1.5; max-width: 200px; text-align: center;"><span class="edgeLabel"><p>pre-flight</p></span></div></foreignObject></g></g><g class="edgeLabel" transform="translate(350.69140625, 273.5)"><g class="label" data-id="edge2" transform="translate(-59.875, -10.5)"><foreignObject width="119.75" height="21"><div xmlns="http://www.w3.org/1999/xhtml" class="labelBkg" style="display: table-cell; white-space: nowrap; line-height: 1.5; max-width: 200px; text-align: center;"><span class="edgeLabel"><p>advisory printed (L6)</p></span></div></foreignObject></g></g><g class="edgeLabel"><g class="label" data-id="edge3" transform="translate(0, 0)"><foreignObject width="0" height="0"><div xmlns="http://www.w3.org/1999/xhtml" class="labelBkg" style="display: table-cell; white-space: nowrap; line-height: 1.5; max-width: 200px; text-align: center;"><span class="edgeLabel"></span></div></foreignObject></g></g><g class="edgeLabel" transform="translate(214.2734375, 468.5)"><g class="label" data-id="edge4" transform="translate(-79.8984375, -10.5)"><foreignObject width="159.796875" height="21"><div xmlns="http://www.w3.org/1999/xhtml" class="labelBkg" style="display: table-cell; white-space: nowrap; line-height: 1.5; max-width: 200px; text-align: center;"><span class="edgeLabel"><p>retrieve matching skills (L2)</p></span></div></foreignObject></g></g><g class="edgeLabel" transform="translate(214.2734375, 587)"><g class="label" data-id="edge5" transform="translate(-100, -21)"><foreignObject width="200" height="42"><div xmlns="http://www.w3.org/1999/xhtml" class="labelBkg" style="display: table; white-space: break-spaces; line-height: 1.5; max-width: 200px; text-align: center; width: 200px;"><span class="edgeLabel"><p>inject skill context + trajectory sentinel</p></span></div></foreignObject></g></g><g class="edgeLabel"><g class="label" data-id="edge6" transform="translate(0, 0)"><foreignObject width="0" height="0"><div xmlns="http://www.w3.org/1999/xhtml" class="labelBkg" style="display: table-cell; white-space: nowrap; line-height: 1.5; max-width: 200px; text-align: center;"><span class="edgeLabel"></span></div></foreignObject></g></g><g class="edgeLabel" transform="translate(177.4140625, 792.5)"><g class="label" data-id="edge7" transform="translate(-15.75, -10.5)"><foreignObject width="31.5" height="21"><div xmlns="http://www.w3.org/1999/xhtml" class="labelBkg" style="display: table-cell; white-space: nowrap; line-height: 1.5; max-width: 200px; text-align: center;"><span class="edgeLabel"><p>exit 0</p></span></div></foreignObject></g></g><g class="edgeLabel" transform="translate(289.10546875, 792.5)"><g class="label" data-id="edge8" transform="translate(-37.96875, -10.5)"><foreignObject width="75.9375" height="21"><div xmlns="http://www.w3.org/1999/xhtml" class="labelBkg" style="display: table-cell; white-space: nowrap; line-height: 1.5; max-width: 200px; text-align: center;"><span class="edgeLabel"><p>exit != 0 (L7)</p></span></div></foreignObject></g></g><g class="edgeLabel" transform="translate(399.12890625, 651.5)"><g class="label" data-id="edge9" transform="translate(-71.7265625, -10.5)"><foreignObject width="143.453125" height="21"><div xmlns="http://www.w3.org/1999/xhtml" class="labelBkg" style="display: table-cell; white-space: nowrap; line-height: 1.5; max-width: 200px; text-align: center;"><span class="edgeLabel"><p>retry with reflexion block</p></span></div></foreignObject></g></g><g class="edgeLabel" transform="translate(177.4140625, 900.5)"><g class="label" data-id="edge10" transform="translate(-96.9921875, -10.5)"><foreignObject width="193.984375" height="21"><div xmlns="http://www.w3.org/1999/xhtml" class="labelBkg" style="display: table-cell; white-space: nowrap; line-height: 1.5; max-width: 200px; text-align: center;"><span class="edgeLabel"><p>extract sentinel-wrapped note (L8)</p></span></div></foreignObject></g></g><g class="edgeLabel" transform="translate(177.4140625, 1008.5)"><g class="label" data-id="edge11" transform="translate(-62.390625, -10.5)"><foreignObject width="124.78125" height="21"><div xmlns="http://www.w3.org/1999/xhtml" class="labelBkg" style="display: table-cell; white-space: nowrap; line-height: 1.5; max-width: 200px; text-align: center;"><span class="edgeLabel"><p>save slice pattern (L2)</p></span></div></foreignObject></g></g><g class="edgeLabel" transform="translate(177.4140625, 1116.5)"><g class="label" data-id="edge12" transform="translate(-46.4453125, -10.5)"><foreignObject width="92.890625" height="21"><div xmlns="http://www.w3.org/1999/xhtml" class="labelBkg" style="display: table-cell; white-space: nowrap; line-height: 1.5; max-width: 200px; text-align: center;"><span class="edgeLabel"><p>brain.gate-check</p></span></div></foreignObject></g></g><g class="edgeLabel" transform="translate(108, 1235)"><g class="label" data-id="edge13" transform="translate(-100, -21)"><foreignObject width="200" height="42"><div xmlns="http://www.w3.org/1999/xhtml" class="labelBkg" style="display: table; white-space: break-spaces; line-height: 1.5; max-width: 200px; text-align: center; width: 200px;"><span class="edgeLabel"><p>runtime.reviewer.enabled (L4, opt-in)</p></span></div></foreignObject></g></g><g class="edgeLabel" transform="translate(246.828125, 1299.5)"><g class="label" data-id="edge14" transform="translate(-49.5625, -10.5)"><foreignObject width="99.125" height="21"><div xmlns="http://www.w3.org/1999/xhtml" class="labelBkg" style="display: table-cell; white-space: nowrap; line-height: 1.5; max-width: 200px; text-align: center;"><span class="edgeLabel"><p>reviewer disabled</p></span></div></foreignObject></g></g><g class="edgeLabel" transform="translate(277.49076, 1336.5658)"><g class="label" data-id="edge15" transform="translate(-60.265625, -10.5)"><foreignObject width="120.53125" height="21"><div xmlns="http://www.w3.org/1999/xhtml" class="labelBkg" style="display: table-cell; white-space: nowrap; line-height: 1.5; max-width: 200px; text-align: center;"><span class="edgeLabel"><p>advisory verdict (D6)</p></span></div></foreignObject></g></g><g class="edgeLabel" transform="translate(108, 1515.5)"><g class="label" data-id="edge16" transform="translate(-86.8125, -10.5)"><foreignObject width="173.625" height="21"><div xmlns="http://www.w3.org/1999/xhtml" class="labelBkg" style="display: table-cell; white-space: nowrap; line-height: 1.5; max-width: 200px; text-align: center;"><span class="edgeLabel"><p>critical + blockOnCritical=true</p></span></div></foreignObject></g></g><g class="edgeLabel"><g class="label" data-id="edge17" transform="translate(0, 0)"><foreignObject width="0" height="0"><div xmlns="http://www.w3.org/1999/xhtml" class="labelBkg" style="display: table-cell; white-space: nowrap; line-height: 1.5; max-width: 200px; text-align: center;"><span class="edgeLabel"></span></div></foreignObject></g></g><g class="edgeLabel" transform="translate(515.30859375, 846.5)"><g class="label" data-id="edge18" transform="translate(-31.6875, -10.5)"><foreignObject width="63.375" height="21"><div xmlns="http://www.w3.org/1999/xhtml" class="labelBkg" style="display: table-cell; white-space: nowrap; line-height: 1.5; max-width: 200px; text-align: center;"><span class="edgeLabel"><p>more slices</p></span></div></foreignObject></g></g><g class="edgeLabel" transform="translate(378.30078125, 1461.5)"><g class="label" data-id="edge19" transform="translate(-24.3046875, -10.5)"><foreignObject width="48.609375" height="21"><div xmlns="http://www.w3.org/1999/xhtml" class="labelBkg" style="display: table-cell; white-space: nowrap; line-height: 1.5; max-width: 200px; text-align: center;"><span class="edgeLabel"><p>last slice</p></span></div></foreignObject></g></g><g class="edgeLabel" transform="translate(378.30078125, 1580)"><g class="label" data-id="edge20" transform="translate(-100, -21)"><foreignObject width="200" height="42"><div xmlns="http://www.w3.org/1999/xhtml" class="labelBkg" style="display: table; white-space: break-spaces; line-height: 1.5; max-width: 200px; text-align: center; width: 200px;"><span class="edgeLabel"><p>retries, gateFlaps, costDelta, driftDelta (L5)</p></span></div></foreignObject></g></g><g class="edgeLabel" transform="translate(272.98828125, 1698.5)"><g class="label" data-id="edge21" transform="translate(-93.484375, -10.5)"><foreignObject width="186.96875" height="21"><div xmlns="http://www.w3.org/1999/xhtml" class="labelBkg" style="display: table-cell; white-space: nowrap; line-height: 1.5; max-width: 200px; text-align: center;"><span class="edgeLabel"><p>brain.federation.enabled (L4-lite)</p></span></div></foreignObject></g></g><g class="edgeLabel"><g class="label" data-id="edge22" transform="translate(0, 0)"><foreignObject width="0" height="0"><div xmlns="http://www.w3.org/1999/xhtml" class="labelBkg" style="display: table-cell; white-space: nowrap; line-height: 1.5; max-width: 200px; text-align: center;"><span class="edgeLabel"></span></div></foreignObject></g></g><g class="edgeLabel"><g class="label" data-id="edge23" transform="translate(0, 0)"><foreignObject width="0" height="0"><div xmlns="http://www.w3.org/1999/xhtml" class="labelBkg" style="display: table-cell; white-space: nowrap; line-height: 1.5; max-width: 200px; text-align: center;"><span class="edgeLabel"></span></div></foreignObject></g></g></g><g class="nodes"><g class="node default" id="my-svg-state-root_start-0" data-look="classic" transform="translate(350.69140625, 15)"><circle class="state-start" r="7" width="14" height="14"/></g><g class="node  statediagram-state" id="my-svg-state-PlanParsed-1" data-look="classic" transform="translate(350.69140625, 111.5)"><rect class="basic label-container" style="" rx="5" ry="5" x="-39.109375" y="-18.5" width="78.21875" height="37"/><g class="label" style="" transform="translate(-31.109375, -10.5)"><rect/><foreignObject width="62.21875" height="21"><div xmlns="http://www.w3.org/1999/xhtml" style="display: table-cell; white-space: nowrap; line-height: 1.5; max-width: 200px; text-align: center;"><span class="nodeLabel markdown-node-label"><p>PlanParsed</p></span></div></foreignObject></g></g><g class="node  statediagram-state" id="my-svg-state-GateSynthesis-2" data-look="classic" transform="translate(350.69140625, 219.5)"><rect class="basic label-container" style="" rx="5" ry="5" x="-48.0546875" y="-18.5" width="96.109375" height="37"/><g class="label" style="" transform="translate(-40.0546875, -10.5)"><rect/><foreignObject width="80.109375" height="21"><div xmlns="http://www.w3.org/1999/xhtml" style="display: table-cell; white-space: nowrap; line-height: 1.5; max-width: 200px; text-align: center;"><span class="nodeLabel markdown-node-label"><p>GateSynthesis</p></span></div></foreignObject></g></g><g class="node  statediagram-state" id="my-svg-state-SliceReady-18" data-look="classic" transform="translate(350.69140625, 327.5)"><rect class="basic label-container" style="" rx="5" ry="5" x="-39.8828125" y="-18.5" width="79.765625" height="37"/><g class="label" style="" transform="translate(-31.8828125, -10.5)"><rect/><foreignObject width="63.765625" height="21"><div xmlns="http://www.w3.org/1999/xhtml" style="display: table-cell; white-space: nowrap; line-height: 1.5; max-width: 200px; text-align: center;"><span class="nodeLabel markdown-node-label"><p>SliceReady</p></span></div></foreignObject></g></g><g class="node  statediagram-state" id="my-svg-state-BuildPrompt-9" data-look="classic" transform="translate(291.765625, 414.5)"><rect class="basic label-container" style="" rx="5" ry="5" x="-44.1796875" y="-18.5" width="88.359375" height="37"/><g class="label" style="" transform="translate(-36.1796875, -10.5)"><rect/><foreignObject width="72.359375" height="21"><div xmlns="http://www.w3.org/1999/xhtml" style="display: table-cell; white-space: nowrap; line-height: 1.5; max-width: 200px; text-align: center;"><span class="nodeLabel markdown-node-label"><p>BuildPrompt</p></span></div></foreignObject></g></g><g class="node  statediagram-state" id="my-svg-state-AutoSkillLookup-5" data-look="classic" transform="translate(214.2734375, 522.5)"><rect class="basic label-container" style="" rx="5" ry="5" x="-57.0078125" y="-18.5" width="114.015625" height="37"/><g class="label" style="" transform="translate(-49.0078125, -10.5)"><rect/><foreignObject width="98.015625" height="21"><div xmlns="http://www.w3.org/1999/xhtml" style="display: table-cell; white-space: nowrap; line-height: 1.5; max-width: 200px; text-align: center;"><span class="nodeLabel markdown-node-label"><p>AutoSkillLookup</p></span></div></foreignObject></g></g><g class="node  statediagram-state" id="my-svg-state-WorkerInvoke-6" data-look="classic" transform="translate(214.2734375, 651.5)"><rect class="basic label-container" style="" rx="5" ry="5" x="-48.2578125" y="-18.5" width="96.515625" height="37"/><g class="label" style="" transform="translate(-40.2578125, -10.5)"><rect/><foreignObject width="80.515625" height="21"><div xmlns="http://www.w3.org/1999/xhtml" style="display: table-cell; white-space: nowrap; line-height: 1.5; max-width: 200px; text-align: center;"><span class="nodeLabel markdown-node-label"><p>WorkerInvoke</p></span></div></foreignObject></g></g><g class="node  statediagram-state" id="my-svg-state-GateRun-8" data-look="classic" transform="translate(214.2734375, 738.5)"><rect class="basic label-container" style="" rx="5" ry="5" x="-32.8828125" y="-18.5" width="65.765625" height="37"/><g class="label" style="" transform="translate(-24.8828125, -10.5)"><rect/><foreignObject width="49.765625" height="21"><div xmlns="http://www.w3.org/1999/xhtml" style="display: table-cell; white-space: nowrap; line-height: 1.5; max-width: 200px; text-align: center;"><span class="nodeLabel markdown-node-label"><p>GateRun</p></span></div></foreignObject></g></g><g class="node  statediagram-state" id="my-svg-state-GatePassed-10" data-look="classic" transform="translate(177.4140625, 846.5)"><rect class="basic label-container" style="" rx="5" ry="5" x="-40.2734375" y="-18.5" width="80.546875" height="37"/><g class="label" style="" transform="translate(-32.2734375, -10.5)"><rect/><foreignObject width="64.546875" height="21"><div xmlns="http://www.w3.org/1999/xhtml" style="display: table-cell; white-space: nowrap; line-height: 1.5; max-width: 200px; text-align: center;"><span class="nodeLabel markdown-node-label"><p>GatePassed</p></span></div></foreignObject></g></g><g class="node  statediagram-state" id="my-svg-state-ReflexionBuild-9" data-look="classic" transform="translate(381.53515625, 846.5)"><rect class="basic label-container" style="" rx="5" ry="5" x="-51.1640625" y="-18.5" width="102.328125" height="37"/><g class="label" style="" transform="translate(-43.1640625, -10.5)"><rect/><foreignObject width="86.328125" height="21"><div xmlns="http://www.w3.org/1999/xhtml" style="display: table-cell; white-space: nowrap; line-height: 1.5; max-width: 200px; text-align: center;"><span class="nodeLabel markdown-node-label"><p>ReflexionBuild</p></span></div></foreignObject></g></g><g class="node  statediagram-state" id="my-svg-state-TrajectoryWrite-11" data-look="classic" transform="translate(177.4140625, 954.5)"><rect class="basic label-container" style="" rx="5" ry="5" x="-52.5625" y="-18.5" width="105.125" height="37"/><g class="label" style="" transform="translate(-44.5625, -10.5)"><rect/><foreignObject width="89.125" height="21"><div xmlns="http://www.w3.org/1999/xhtml" style="display: table-cell; white-space: nowrap; line-height: 1.5; max-width: 200px; text-align: center;"><span class="nodeLabel markdown-node-label"><p>TrajectoryWrite</p></span></div></foreignObject></g></g><g class="node  statediagram-state" id="my-svg-state-AutoSkillCapture-12" data-look="classic" transform="translate(177.4140625, 1062.5)"><rect class="basic label-container" style="" rx="5" ry="5" x="-57.390625" y="-18.5" width="114.78125" height="37"/><g class="label" style="" transform="translate(-49.390625, -10.5)"><rect/><foreignObject width="98.78125" height="21"><div xmlns="http://www.w3.org/1999/xhtml" style="display: table-cell; white-space: nowrap; line-height: 1.5; max-width: 200px; text-align: center;"><span class="nodeLabel markdown-node-label"><p>AutoSkillCapture</p></span></div></foreignObject></g></g><g class="node  statediagram-state" id="my-svg-state-ReviewerCheck-14" data-look="classic" transform="translate(177.4140625, 1170.5)"><rect class="basic label-container" style="" rx="5" ry="5" x="-52.7109375" y="-18.5" width="105.421875" height="37"/><g class="label" style="" transform="translate(-44.7109375, -10.5)"><rect/><foreignObject width="89.421875" height="21"><div xmlns="http://www.w3.org/1999/xhtml" style="display: table-cell; white-space: nowrap; line-height: 1.5; max-width: 200px; text-align: center;"><span class="nodeLabel markdown-node-label"><p>ReviewerCheck</p></span></div></foreignObject></g></g><g class="node  statediagram-state" id="my-svg-state-ReviewerInvoke-16" data-look="classic" transform="translate(108, 1299.5)"><rect class="basic label-container" style="" rx="5" ry="5" x="-54.265625" y="-18.5" width="108.53125" height="37"/><g class="label" style="" transform="translate(-46.265625, -10.5)"><rect/><foreignObject width="92.53125" height="21"><div xmlns="http://www.w3.org/1999/xhtml" style="display: table-cell; white-space: nowrap; line-height: 1.5; max-width: 200px; text-align: center;"><span class="nodeLabel markdown-node-label"><p>ReviewerInvoke</p></span></div></foreignObject></g></g><g class="node  statediagram-state" id="my-svg-state-NextSlice-19" data-look="classic" transform="translate(378.30078125, 1407.5)"><rect class="basic label-container" style="" rx="5" ry="5" x="-35.609375" y="-18.5" width="71.21875" height="37"/><g class="label" style="" transform="translate(-27.609375, -10.5)"><rect/><foreignObject width="55.21875" height="21"><div xmlns="http://www.w3.org/1999/xhtml" style="display: table-cell; white-space: nowrap; line-height: 1.5; max-width: 200px; text-align: center;"><span class="nodeLabel markdown-node-label"><p>NextSlice</p></span></div></foreignObject></g></g><g class="node  statediagram-state" id="my-svg-state-BlockedCritical-17" data-look="classic" transform="translate(108, 1752.5)"><rect class="basic label-container" style="" rx="5" ry="5" x="-52.328125" y="-18.5" width="104.65625" height="37"/><g class="label" style="" transform="translate(-44.328125, -10.5)"><rect/><foreignObject width="88.65625" height="21"><div xmlns="http://www.w3.org/1999/xhtml" style="display: table-cell; white-space: nowrap; line-height: 1.5; max-width: 200px; text-align: center;"><span class="nodeLabel markdown-node-label"><p>BlockedCritical</p></span></div></foreignObject></g></g><g class="node default" id="my-svg-state-root_end-23" data-look="classic" transform="translate(298.18359375, 1828)"><g class="outer-path"><path d="M7 0 C7 0.40517908122283747, 6.964012880168563 0.816513743121899, 6.893654271085456 1.2155372436685123 C6.823295662002349 1.6145607442151257, 6.716427752933756 2.013397210557766, 6.5778483455013586 2.394141003279681 C6.439268938068961 2.7748847960015954, 6.26476736710249 3.149104622578984, 6.062177826491071 3.4999999999999996 C5.859588285879653 3.8508953774210153, 5.622755194947063 4.189128084166967, 5.362311101832846 4.499513267805774 C5.10186700871863 4.809898451444582, 4.809898451444583 5.10186700871863, 4.499513267805775 5.362311101832846 C4.189128084166968 5.622755194947063, 3.8508953774210166 5.859588285879652, 3.500000000000001 6.06217782649107 C3.149104622578985 6.264767367102489, 2.7748847960015963 6.439268938068961, 2.3941410032796817 6.5778483455013586 C2.013397210557767 6.716427752933756, 1.6145607442151264 6.823295662002349, 1.2155372436685128 6.893654271085456 C0.8165137431218992 6.964012880168563, 0.4051790812228379 7, 4.286263797015736e-16 7 C-0.405179081222837 7, -0.8165137431218985 6.964012880168563, -1.2155372436685121 6.893654271085456 C-1.6145607442151257 6.823295662002349, -2.0133972105577667 6.716427752933756, -2.394141003279681 6.5778483455013586 C-2.774884796001595 6.439268938068961, -3.149104622578983 6.26476736710249, -3.4999999999999982 6.062177826491071 C-3.8508953774210135 5.859588285879653, -4.189128084166966 5.6227551949470636, -4.499513267805773 5.362311101832848 C-4.809898451444581 5.101867008718632, -5.101867008718628 4.809898451444586, -5.3623111018328435 4.499513267805779 C-5.622755194947059 4.189128084166971, -5.859588285879649 3.8508953774210206, -6.062177826491068 3.5000000000000053 C-6.264767367102486 3.14910462257899, -6.439268938068958 2.774884796001602, -6.577848345501356 2.394141003279688 C-6.716427752933754 2.0133972105577738, -6.823295662002347 1.614560744215134, -6.893654271085454 1.215537243668521 C-6.9640128801685615 0.816513743121908, -6.999999999999999 0.4051790812228472, -7 1.0183126166254463e-14 C-7.000000000000001 -0.40517908122282686, -6.964012880168565 -0.8165137431218878, -6.893654271085459 -1.215537243668501 C-6.823295662002352 -1.6145607442151142, -6.716427752933759 -2.0133972105577542, -6.577848345501363 -2.394141003279669 C-6.439268938068967 -2.7748847960015834, -6.264767367102496 -3.149104622578972, -6.062177826491078 -3.4999999999999876 C-5.859588285879661 -3.8508953774210033, -5.6227551949470715 -4.1891280841669545, -5.362311101832856 -4.499513267805763 C-5.10186700871864 -4.809898451444571, -4.809898451444594 -5.10186700871862, -4.499513267805787 -5.362311101832836 C-4.189128084166979 -5.622755194947053, -3.850895377421028 -5.859588285879643, -3.5000000000000133 -6.062177826491062 C-3.1491046225789985 -6.264767367102482, -2.774884796001611 -6.439268938068954, -2.3941410032796973 -6.577848345501353 C-2.0133972105577835 -6.716427752933752, -1.6145607442151435 -6.823295662002345, -1.2155372436685306 -6.893654271085453 C-0.8165137431219176 -6.9640128801685615, -0.40517908122285695 -6.999999999999999, -1.9937625952807352e-14 -7 C0.4051790812228171 -7.000000000000001, 0.8165137431218781 -6.964012880168565, 1.2155372436684913 -6.89365427108546 C1.6145607442151044 -6.823295662002354, 2.013397210557745 -6.716427752933763, 2.3941410032796595 -6.5778483455013665 C2.774884796001574 -6.43926893806897, 3.149104622578963 -6.2647673671025, 3.499999999999979 -6.062177826491083 C3.8508953774209953 -5.859588285879665, 4.189128084166947 -5.622755194947077, 4.499513267805756 -5.362311101832862 C4.809898451444564 -5.1018670087186475, 5.101867008718613 -4.809898451444602, 5.362311101832829 -4.499513267805796 C5.622755194947046 -4.189128084166989, 5.859588285879637 -3.8508953774210393, 6.062177826491056 -3.500000000000025 C6.2647673671024755 -3.1491046225790105, 6.439268938068949 -2.774884796001623, 6.577848345501348 -2.3941410032797092 C6.716427752933747 -2.0133972105577955, 6.823295662002342 -1.6145607442151562, 6.893654271085451 -1.2155372436685434 C6.96401288016856 -0.8165137431219307, 6.982275711847575 -0.2025895406114567, 7 -3.2800750208310675e-14 C7.017724288152425 0.2025895406113911, 7.017724288152424 -0.2025895406114242, 7 0" stroke="none" stroke-width="0" fill="#1e293b" style=""/><path d="M7 0 C7 0.40517908122283747, 6.964012880168563 0.816513743121899, 6.893654271085456 1.2155372436685123 C6.823295662002349 1.6145607442151257, 6.716427752933756 2.013397210557766, 6.5778483455013586 2.394141003279681 C6.439268938068961 2.7748847960015954, 6.26476736710249 3.149104622578984, 6.062177826491071 3.4999999999999996 C5.859588285879653 3.8508953774210153, 5.622755194947063 4.189128084166967, 5.362311101832846 4.499513267805774 C5.10186700871863 4.809898451444582, 4.809898451444583 5.10186700871863, 4.499513267805775 5.362311101832846 C4.189128084166968 5.622755194947063, 3.8508953774210166 5.859588285879652, 3.500000000000001 6.06217782649107 C3.149104622578985 6.264767367102489, 2.7748847960015963 6.439268938068961, 2.3941410032796817 6.5778483455013586 C2.013397210557767 6.716427752933756, 1.6145607442151264 6.823295662002349, 1.2155372436685128 6.893654271085456 C0.8165137431218992 6.964012880168563, 0.4051790812228379 7, 4.286263797015736e-16 7 C-0.405179081222837 7, -0.8165137431218985 6.964012880168563, -1.2155372436685121 6.893654271085456 C-1.6145607442151257 6.823295662002349, -2.0133972105577667 6.716427752933756, -2.394141003279681 6.5778483455013586 C-2.774884796001595 6.439268938068961, -3.149104622578983 6.26476736710249, -3.4999999999999982 6.062177826491071 C-3.8508953774210135 5.859588285879653, -4.189128084166966 5.6227551949470636, -4.499513267805773 5.362311101832848 C-4.809898451444581 5.101867008718632, -5.101867008718628 4.809898451444586, -5.3623111018328435 4.499513267805779 C-5.622755194947059 4.189128084166971, -5.859588285879649 3.8508953774210206, -6.062177826491068 3.5000000000000053 C-6.264767367102486 3.14910462257899, -6.439268938068958 2.774884796001602, -6.577848345501356 2.394141003279688 C-6.716427752933754 2.0133972105577738, -6.823295662002347 1.614560744215134, -6.893654271085454 1.215537243668521 C-6.9640128801685615 0.816513743121908, -6.999999999999999 0.4051790812228472, -7 1.0183126166254463e-14 C-7.000000000000001 -0.40517908122282686, -6.964012880168565 -0.8165137431218878, -6.893654271085459 -1.215537243668501 C-6.823295662002352 -1.6145607442151142, -6.716427752933759 -2.0133972105577542, -6.577848345501363 -2.394141003279669 C-6.439268938068967 -2.7748847960015834, -6.264767367102496 -3.149104622578972, -6.062177826491078 -3.4999999999999876 C-5.859588285879661 -3.8508953774210033, -5.6227551949470715 -4.1891280841669545, -5.362311101832856 -4.499513267805763 C-5.10186700871864 -4.809898451444571, -4.809898451444594 -5.10186700871862, -4.499513267805787 -5.362311101832836 C-4.189128084166979 -5.622755194947053, -3.850895377421028 -5.859588285879643, -3.5000000000000133 -6.062177826491062 C-3.1491046225789985 -6.264767367102482, -2.774884796001611 -6.439268938068954, -2.3941410032796973 -6.577848345501353 C-2.0133972105577835 -6.716427752933752, -1.6145607442151435 -6.823295662002345, -1.2155372436685306 -6.893654271085453 C-0.8165137431219176 -6.9640128801685615, -0.40517908122285695 -6.999999999999999, -1.9937625952807352e-14 -7 C0.4051790812228171 -7.000000000000001, 0.8165137431218781 -6.964012880168565, 1.2155372436684913 -6.89365427108546 C1.6145607442151044 -6.823295662002354, 2.013397210557745 -6.716427752933763, 2.3941410032796595 -6.5778483455013665 C2.774884796001574 -6.43926893806897, 3.149104622578963 -6.2647673671025, 3.499999999999979 -6.062177826491083 C3.8508953774209953 -5.859588285879665, 4.189128084166947 -5.622755194947077, 4.499513267805756 -5.362311101832862 C4.809898451444564 -5.1018670087186475, 5.101867008718613 -4.809898451444602, 5.362311101832829 -4.499513267805796 C5.622755194947046 -4.189128084166989, 5.859588285879637 -3.8508953774210393, 6.062177826491056 -3.500000000000025 C6.2647673671024755 -3.1491046225790105, 6.439268938068949 -2.774884796001623, 6.577848345501348 -2.3941410032797092 C6.716427752933747 -2.0133972105577955, 6.823295662002342 -1.6145607442151562, 6.893654271085451 -1.2155372436685434 C6.96401288016856 -0.8165137431219307, 6.982275711847575 -0.2025895406114567, 7 -3.2800750208310675e-14 C7.017724288152425 0.2025895406113911, 7.017724288152424 -0.2025895406114242, 7 0" stroke="#94a3b8" stroke-width="2" fill="none" stroke-dasharray="0 0" style=""/><g><path d="M2.5 0 C2.5 0.14470681472244193, 2.487147457203058 0.29161205111496386, 2.46201938253052 0.4341204441673258 C2.436891307857982 0.5766288372196877, 2.3987241974763416 0.7190704323420595, 2.3492315519647713 0.8550503583141718 C2.299738906453201 0.991030284286284, 2.2374169168223177 1.124680222349637, 2.165063509461097 1.2499999999999998 C2.092710102099876 1.3753197776503625, 2.0081268553382365 1.496117172916774, 1.915111107797445 1.6069690242163481 C1.8220953602566536 1.7178208755159223, 1.7178208755159226 1.8220953602566536, 1.6069690242163484 1.915111107797445 C1.4961171729167742 2.0081268553382365, 1.375319777650363 2.0927101020998755, 1.2500000000000002 2.1650635094610964 C1.1246802223496375 2.2374169168223172, 0.9910302842862845 2.2997389064532, 0.8550503583141721 2.349231551964771 C0.7190704323420597 2.3987241974763416, 0.576628837219688 2.436891307857982, 0.43412044416732604 2.46201938253052 C0.291612051114964 2.487147457203058, 0.14470681472244212 2.5, 1.5308084989341916e-16 2.5 C-0.1447068147224418 2.5, -0.2916120511149638 2.487147457203058, -0.43412044416732576 2.46201938253052 C-0.5766288372196877 2.436891307857982, -0.7190704323420595 2.3987241974763416, -0.8550503583141718 2.3492315519647713 C-0.991030284286284 2.299738906453201, -1.124680222349637 2.2374169168223177, -1.2499999999999996 2.165063509461097 C-1.375319777650362 2.092710102099876, -1.4961171729167733 2.008126855338237, -1.6069690242163475 1.9151111077974459 C-1.7178208755159217 1.8220953602566548, -1.822095360256653 1.7178208755159234, -1.9151111077974443 1.6069690242163495 C-2.0081268553382357 1.4961171729167755, -2.0927101020998746 1.3753197776503645, -2.1650635094610955 1.250000000000002 C-2.2374169168223164 1.1246802223496395, -2.2997389064531992 0.9910302842862865, -2.34923155196477 0.8550503583141743 C-2.3987241974763407 0.7190704323420621, -2.436891307857981 0.5766288372196907, -2.4620193825305194 0.434120444167329 C-2.487147457203058 0.29161205111496724, -2.5 0.14470681472244545, -2.5 3.636830773662308e-15 C-2.5 -0.14470681472243818, -2.4871474572030587 -0.2916120511149599, -2.4620193825305208 -0.4341204441673218 C-2.436891307857983 -0.5766288372196837, -2.398724197476343 -0.7190704323420553, -2.3492315519647726 -0.8550503583141675 C-2.2997389064532023 -0.9910302842862798, -2.23741691682232 -1.1246802223496328, -2.165063509461099 -1.2499999999999956 C-2.092710102099878 -1.3753197776503583, -2.00812685533824 -1.4961171729167695, -1.9151111077974488 -1.606969024216344 C-1.8220953602566576 -1.7178208755159183, -1.7178208755159263 -1.82209536025665, -1.6069690242163523 -1.9151111077974416 C-1.4961171729167784 -2.0081268553382334, -1.3753197776503672 -2.0927101020998724, -1.2500000000000047 -2.1650635094610937 C-1.1246802223496422 -2.237416916822315, -0.9910302842862897 -2.299738906453198, -0.8550503583141776 -2.3492315519647686 C-0.7190704323420656 -2.3987241974763394, -0.5766288372196942 -2.4368913078579806, -0.43412044416733236 -2.462019382530519 C-0.29161205111497057 -2.4871474572030574, -0.1447068147224489 -2.4999999999999996, -7.120580697431198e-15 -2.5 C0.14470681472243463 -2.5000000000000004, 0.29161205111495647 -2.487147457203059, 0.4341204441673183 -2.4620193825305217 C0.5766288372196802 -2.436891307857984, 0.7190704323420518 -2.3987241974763442, 0.8550503583141642 -2.349231551964774 C0.9910302842862766 -2.2997389064532037, 1.1246802223496295 -2.2374169168223212, 1.2499999999999925 -2.165063509461101 C1.3753197776503554 -2.0927101020998804, 1.4961171729167668 -2.008126855338242, 1.6069690242163412 -1.915111107797451 C1.7178208755159157 -1.82209536025666, 1.8220953602566472 -1.7178208755159294, 1.915111107797439 -1.6069690242163557 C2.0081268553382308 -1.496117172916782, 2.09271010209987 -1.3753197776503712, 2.1650635094610915 -1.2500000000000089 C2.237416916822313 -1.1246802223496466, 2.299738906453196 -0.9910302842862939, 2.3492315519647673 -0.855050358314182 C2.3987241974763385 -0.71907043234207, 2.4368913078579792 -0.5766288372196986, 2.462019382530518 -0.4341204441673369 C2.487147457203057 -0.29161205111497523, 2.4936698970884197 -0.07235340736123454, 2.5 -1.1714553645825241e-14 C2.5063301029115803 0.07235340736121111, 2.50633010291158 -0.07235340736122292, 2.5 0" stroke="none" stroke-width="0" fill="#f59e0b" style=""/><path d="M2.5 0 C2.5 0.14470681472244193, 2.487147457203058 0.29161205111496386, 2.46201938253052 0.4341204441673258 C2.436891307857982 0.5766288372196877, 2.3987241974763416 0.7190704323420595, 2.3492315519647713 0.8550503583141718 C2.299738906453201 0.991030284286284, 2.2374169168223177 1.124680222349637, 2.165063509461097 1.2499999999999998 C2.092710102099876 1.3753197776503625, 2.0081268553382365 1.496117172916774, 1.915111107797445 1.6069690242163481 C1.8220953602566536 1.7178208755159223, 1.7178208755159226 1.8220953602566536, 1.6069690242163484 1.915111107797445 C1.4961171729167742 2.0081268553382365, 1.375319777650363 2.0927101020998755, 1.2500000000000002 2.1650635094610964 C1.1246802223496375 2.2374169168223172, 0.9910302842862845 2.2997389064532, 0.8550503583141721 2.349231551964771 C0.7190704323420597 2.3987241974763416, 0.576628837219688 2.436891307857982, 0.43412044416732604 2.46201938253052 C0.291612051114964 2.487147457203058, 0.14470681472244212 2.5, 1.5308084989341916e-16 2.5 C-0.1447068147224418 2.5, -0.2916120511149638 2.487147457203058, -0.43412044416732576 2.46201938253052 C-0.5766288372196877 2.436891307857982, -0.7190704323420595 2.3987241974763416, -0.8550503583141718 2.3492315519647713 C-0.991030284286284 2.299738906453201, -1.124680222349637 2.2374169168223177, -1.2499999999999996 2.165063509461097 C-1.375319777650362 2.092710102099876, -1.4961171729167733 2.008126855338237, -1.6069690242163475 1.9151111077974459 C-1.7178208755159217 1.8220953602566548, -1.822095360256653 1.7178208755159234, -1.9151111077974443 1.6069690242163495 C-2.0081268553382357 1.4961171729167755, -2.0927101020998746 1.3753197776503645, -2.1650635094610955 1.250000000000002 C-2.2374169168223164 1.1246802223496395, -2.2997389064531992 0.9910302842862865, -2.34923155196477 0.8550503583141743 C-2.3987241974763407 0.7190704323420621, -2.436891307857981 0.5766288372196907, -2.4620193825305194 0.434120444167329 C-2.487147457203058 0.29161205111496724, -2.5 0.14470681472244545, -2.5 3.636830773662308e-15 C-2.5 -0.14470681472243818, -2.4871474572030587 -0.2916120511149599, -2.4620193825305208 -0.4341204441673218 C-2.436891307857983 -0.5766288372196837, -2.398724197476343 -0.7190704323420553, -2.3492315519647726 -0.8550503583141675 C-2.2997389064532023 -0.9910302842862798, -2.23741691682232 -1.1246802223496328, -2.165063509461099 -1.2499999999999956 C-2.092710102099878 -1.3753197776503583, -2.00812685533824 -1.4961171729167695, -1.9151111077974488 -1.606969024216344 C-1.8220953602566576 -1.7178208755159183, -1.7178208755159263 -1.82209536025665, -1.6069690242163523 -1.9151111077974416 C-1.4961171729167784 -2.0081268553382334, -1.3753197776503672 -2.0927101020998724, -1.2500000000000047 -2.1650635094610937 C-1.1246802223496422 -2.237416916822315, -0.9910302842862897 -2.299738906453198, -0.8550503583141776 -2.3492315519647686 C-0.7190704323420656 -2.3987241974763394, -0.5766288372196942 -2.4368913078579806, -0.43412044416733236 -2.462019382530519 C-0.29161205111497057 -2.4871474572030574, -0.1447068147224489 -2.4999999999999996, -7.120580697431198e-15 -2.5 C0.14470681472243463 -2.5000000000000004, 0.29161205111495647 -2.487147457203059, 0.4341204441673183 -2.4620193825305217 C0.5766288372196802 -2.436891307857984, 0.7190704323420518 -2.3987241974763442, 0.8550503583141642 -2.349231551964774 C0.9910302842862766 -2.2997389064532037, 1.1246802223496295 -2.2374169168223212, 1.2499999999999925 -2.165063509461101 C1.3753197776503554 -2.0927101020998804, 1.4961171729167668 -2.008126855338242, 1.6069690242163412 -1.915111107797451 C1.7178208755159157 -1.82209536025666, 1.8220953602566472 -1.7178208755159294, 1.915111107797439 -1.6069690242163557 C2.0081268553382308 -1.496117172916782, 2.09271010209987 -1.3753197776503712, 2.1650635094610915 -1.2500000000000089 C2.237416916822313 -1.1246802223496466, 2.299738906453196 -0.9910302842862939, 2.3492315519647673 -0.855050358314182 C2.3987241974763385 -0.71907043234207, 2.4368913078579792 -0.5766288372196986, 2.462019382530518 -0.4341204441673369 C2.487147457203057 -0.29161205111497523, 2.4936698970884197 -0.07235340736123454, 2.5 -1.1714553645825241e-14 C2.5063301029115803 0.07235340736121111, 2.50633010291158 -0.07235340736122292, 2.5 0" stroke="#f59e0b" stroke-width="2" fill="none" stroke-dasharray="0 0" style=""/></g></g></g><g class="node  statediagram-state" id="my-svg-state-RunComplete-20" data-look="classic" transform="translate(378.30078125, 1515.5)"><rect class="basic label-container" style="" rx="5" ry="5" x="-46.890625" y="-18.5" width="93.78125" height="37"/><g class="label" style="" transform="translate(-38.890625, -10.5)"><rect/><foreignObject width="77.78125" height="21"><div xmlns="http://www.w3.org/1999/xhtml" style="display: table-cell; white-space: nowrap; line-height: 1.5; max-width: 200px; text-align: center;"><span class="nodeLabel markdown-node-label"><p>RunComplete</p></span></div></foreignObject></g></g><g class="node  statediagram-state" id="my-svg-state-PostmortemWrite-23" data-look="classic" transform="translate(378.30078125, 1644.5)"><rect class="basic label-container" style="" rx="5" ry="5" x="-57.4921875" y="-18.5" width="114.984375" height="37"/><g class="label" style="" transform="translate(-49.4921875, -10.5)"><rect/><foreignObject width="98.984375" height="21"><div xmlns="http://www.w3.org/1999/xhtml" style="display: table-cell; white-space: nowrap; line-height: 1.5; max-width: 200px; text-align: center;"><span class="nodeLabel markdown-node-label"><p>PostmortemWrite</p></span></div></foreignObject></g></g><g class="node  statediagram-state" id="my-svg-state-FederationPublish-22" data-look="classic" transform="translate(272.98828125, 1752.5)"><rect class="basic label-container" style="" rx="5" ry="5" x="-58.9453125" y="-18.5" width="117.890625" height="37"/><g class="label" style="" transform="translate(-50.9453125, -10.5)"><rect/><foreignObject width="101.890625" height="21"><div xmlns="http://www.w3.org/1999/xhtml" style="display: table-cell; white-space: nowrap; line-height: 1.5; max-width: 200px; text-align: center;"><span class="nodeLabel markdown-node-label"><p>FederationPublish</p></span></div></foreignObject></g></g></g></g></g><defs><filter id="my-svg-drop-shadow" height="130%" width="130%"><feDropShadow dx="4" dy="4" stdDeviation="0" flood-opacity="0.06" flood-color="#000000"/></filter></defs><defs><filter id="my-svg-drop-shadow-small" height="150%" width="150%"><feDropShadow dx="2" dy="2" stdDeviation="0" flood-opacity="0.06" flood-color="#000000"/></filter></defs><linearGradient id="my-svg-gradient" gradientUnits="objectBoundingBox" x1="0%" y1="0%" x2="100%" y2="0%"><stop offset="0%" stop-color="#60a5fa" stop-opacity="1"/><stop offset="100%" stop-color="#fbbf24" stop-opacity="1"/></linearGradient></svg>